<mxfile host="app.diagrams.net" modified="2022-10-05T02:47:29.629Z" agent="5.0 (Macintosh; Intel Mac OS X 10_15_7) AppleWebKit/537.36 (KHTML, like Gecko) Chrome/105.0.0.0 Safari/537.36 Edg/105.0.1343.53" etag="Ol2aGjk1bbz2MNZ4wmk8" version="20.4.0" type="github">
  <diagram id="R2lEEEUBdFMjLlhIrx00" name="Page-1">
    <mxGraphModel dx="345" dy="739" grid="1" gridSize="10" guides="1" tooltips="1" connect="1" arrows="1" fold="1" page="1" pageScale="1" pageWidth="850" pageHeight="1100" math="0" shadow="0" extFonts="Permanent Marker^https://fonts.googleapis.com/css?family=Permanent+Marker">
      <root>
        <mxCell id="0" />
        <mxCell id="1" parent="0" />
        <mxCell id="gVQdiMnlo7FjY__oL37W-29" value="" style="edgeStyle=orthogonalEdgeStyle;rounded=0;orthogonalLoop=1;jettySize=auto;html=1;entryX=0.5;entryY=0;entryDx=0;entryDy=0;" edge="1" parent="1" source="gVQdiMnlo7FjY__oL37W-14" target="gVQdiMnlo7FjY__oL37W-16">
          <mxGeometry relative="1" as="geometry">
            <mxPoint x="185" y="275" as="targetPoint" />
          </mxGeometry>
        </mxCell>
        <mxCell id="gVQdiMnlo7FjY__oL37W-14" value="需求分析" style="rounded=1;whiteSpace=wrap;html=1;" vertex="1" parent="1">
          <mxGeometry x="130" y="180" width="110" height="30" as="geometry" />
        </mxCell>
        <mxCell id="gVQdiMnlo7FjY__oL37W-32" style="edgeStyle=orthogonalEdgeStyle;rounded=0;orthogonalLoop=1;jettySize=auto;html=1;entryX=0.5;entryY=0;entryDx=0;entryDy=0;" edge="1" parent="1" source="gVQdiMnlo7FjY__oL37W-15" target="gVQdiMnlo7FjY__oL37W-19">
          <mxGeometry relative="1" as="geometry" />
        </mxCell>
        <mxCell id="gVQdiMnlo7FjY__oL37W-15" value="行为设计" style="rounded=1;whiteSpace=wrap;html=1;" vertex="1" parent="1">
          <mxGeometry x="230" y="280" width="120" height="30" as="geometry" />
        </mxCell>
        <mxCell id="gVQdiMnlo7FjY__oL37W-31" style="edgeStyle=orthogonalEdgeStyle;rounded=0;orthogonalLoop=1;jettySize=auto;html=1;" edge="1" parent="1" source="gVQdiMnlo7FjY__oL37W-16" target="gVQdiMnlo7FjY__oL37W-19">
          <mxGeometry relative="1" as="geometry" />
        </mxCell>
        <mxCell id="gVQdiMnlo7FjY__oL37W-16" value="结构设计" style="rounded=1;whiteSpace=wrap;html=1;" vertex="1" parent="1">
          <mxGeometry x="20" y="280" width="120" height="30" as="geometry" />
        </mxCell>
        <mxCell id="gVQdiMnlo7FjY__oL37W-33" style="edgeStyle=orthogonalEdgeStyle;rounded=0;orthogonalLoop=1;jettySize=auto;html=1;" edge="1" parent="1" source="gVQdiMnlo7FjY__oL37W-19" target="gVQdiMnlo7FjY__oL37W-20">
          <mxGeometry relative="1" as="geometry" />
        </mxCell>
        <mxCell id="gVQdiMnlo7FjY__oL37W-19" value="数据库实施" style="rounded=1;whiteSpace=wrap;html=1;" vertex="1" parent="1">
          <mxGeometry x="120" y="370" width="120" height="30" as="geometry" />
        </mxCell>
        <mxCell id="gVQdiMnlo7FjY__oL37W-20" value="数据库运行与维护" style="rounded=1;whiteSpace=wrap;html=1;" vertex="1" parent="1">
          <mxGeometry x="120" y="460" width="120" height="30" as="geometry" />
        </mxCell>
        <mxCell id="gVQdiMnlo7FjY__oL37W-30" value="" style="edgeStyle=orthogonalEdgeStyle;rounded=0;orthogonalLoop=1;jettySize=auto;html=1;entryX=0.5;entryY=0;entryDx=0;entryDy=0;exitX=0.5;exitY=1;exitDx=0;exitDy=0;" edge="1" parent="1" source="gVQdiMnlo7FjY__oL37W-14" target="gVQdiMnlo7FjY__oL37W-15">
          <mxGeometry relative="1" as="geometry">
            <mxPoint x="195" y="220" as="sourcePoint" />
            <mxPoint x="195" y="285" as="targetPoint" />
          </mxGeometry>
        </mxCell>
      </root>
    </mxGraphModel>
  </diagram>
</mxfile>
